Patient4_TMGait_0pt3_02_left_10_EMG.mot
version=1
nRows=30
nColumns=33
inDegrees=no
endheader
time	1LAddLong	2LGlutMax	3LGlutMed	4LIliopsoas	5LSemiMemb	6LBicFemLong	7LRecFem	8LVastMed	9LVastLat	10LGasMed	11LTibAnt	12lTibPost	13LPeroneusLong	14LSol	15LExtDigLong	16LFlexDigLong	17RAddLong	18RGlutMax	19RGlutMed	20RIliopsoas	21RSemiMemb	22RBicFemLong	23RRecFem	24RVastMed	25RVastLat	26RGasMed	27RTibAnt	28RTibPost	29RPeroneusLong	30RSol	31RExtDigLong	32RFlexDigLong
21.495	-0.004272	0.002136	0.012054	0.017242	-0.001068	0.037537	0.003662	0.004883	-0.02655	-0.041656	0.14358	0.001221	0.01236	-0.01236	-0.11231	0.00351	-0.054169	-0.058441	0.014191	0.015564	0.066986	-0.055237	-1.2161	0.1619	0.54108	-0.000916	-0.036926	-0.018921	0.009308	0.004578	-0.003662	-0.00885
21.496	0.003357	-0.003357	0.025177	0.031891	0.007477	0.05188	0.010529	0.004272	0.25589	-0.005035	0.093842	0.00473	-0.038605	-0.072937	0.53513	0.002136	0.011139	-0.08667	-0.41046	-0.0914	-0.010376	-0.059204	-0.82611	-0.12177	0.62286	-0.017853	-0.01236	-0.022888	0.14954	-0.011292	-0.00351	-0.017395
21.497	0.004272	0.00351	0.028381	0.007324	0.012512	0.0383	0.018463	0.005341	0.39047	0.00351	0.015411	0.004425	0.012665	-0.059662	0.072784	-0.004883	0.045776	-0.14023	-0.36438	-0.1944	-0.028381	-0.10605	-0.093689	-0.45731	0.61874	-0.001526	0.050507	-0.02533	0.072784	-0.059509	-0.002289	-0.013885
21.498	0.003662	0.016022	0.023956	-0.017548	-0.001373	0.023651	0.02533	0.00412	0.34347	-0.008087	0.051422	0.006409	0.025177	-0.023499	-0.72067	-0.004883	0.007477	-0.14008	0.44922	-0.2771	0.003357	-0.048065	0.1976	-0.25589	0.8429	0.007782	0.17716	-0.028534	-0.003357	-0.12161	-0.001526	-0.011597
21.499	0.002747	0.013428	0.013275	-0.015869	-0.033264	0.012054	0.020142	0.00412	0.15915	-0.002899	0.12451	-0.000916	-0.018616	-0.042419	-0.27664	-0.005341	-0.011444	-0.15854	0.12482	-0.13458	0.005951	-0.023346	0.20355	0.21439	0.75546	0.01297	0.1944	-0.052185	-0.32227	-0.06958	-0.001831	-0.008392
21.5	-0.006714	0.020294	0.000305	-0.00351	-0.049133	0.028687	0.009308	-0.002594	-0.14893	0.01236	0.084076	-0.007019	-0.007324	-0.011902	-0.15411	-0.009613	-0.048828	-0.074615	-0.052338	0.16373	0.076599	0.045319	-0.039368	0.13046	0.97748	0.016937	0.11749	-0.097656	-0.63751	-0.078735	-0.000916	-0.00885
21.501	-0.003815	0.020294	-0.003052	-0.001984	-0.037384	0.024719	-0.039825	0.005798	-0.48447	0.005798	-0.05722	-0.001068	0.016937	0.009155	-0.007172	0.013123	-0.063934	-0.096283	0.38513	0.29816	0.14938	0.082855	-0.2095	0.023499	0.8168	0.004578	0.007782	-0.12558	-0.55069	-0.19302	-0.001373	-0.006409
21.502	-0.001984	0.02243	-0.003204	-0.003204	-0.027771	0.015564	-0.12375	-0.00473	-0.82138	-0.010834	-0.033875	0.002594	-0.002747	-0.069427	0.12146	0.006409	-0.094452	-0.02533	0.16953	0.15961	0.16205	0.099792	-0.076141	0.052338	0.078583	-0.00061	-0.057068	-0.19623	0.020905	-0.19028	-0.000763	-0.006714
21.503	0.006866	0.019531	-0.01709	0.012512	0.032806	0.011444	-0.17105	0.005188	-0.58655	-0.005341	0.09491	0.001984	0.007324	-0.1178	0.17944	-0.000305	-0.10727	0.037231	-0.28854	0.22507	0.059967	0.06424	0.12482	0.29755	-0.68085	-0.018768	-0.007629	0.24185	0.86777	-0.42084	-0.002136	-0.020294
21.504	0.006256	0.007477	-0.016327	0.011444	0.016327	0.00061	-0.21103	0.005798	0.29266	-0.044403	-0.027924	0.003357	0.037842	-0.091248	0.10178	0.001831	-0.069275	-0.02533	-0.43289	0.1471	-0.13367	0.056763	0.10971	0.1506	-1.1438	-0.02533	0.036926	0.16296	0.50369	-0.392	-0.004272	-0.024872
21.505	-0.001068	0.012054	0.004272	0.001678	-0.004578	0.004578	-0.23804	0.000916	0.69473	-0.035248	-0.062561	-0.000458	0.015106	-0.072174	0.10834	0.021667	-0.085907	-0.11246	-0.68283	0.10117	-0.10666	0.056305	0.17853	0.092316	-1.1784	-0.03891	0.068665	0.085602	0.047455	-0.10361	0.001068	-0.014954
21.506	0.00412	0.010071	0.054626	-0.001984	-0.001068	0.012207	-0.24017	0.011444	0.72494	-0.053253	-0.12619	0	0.034637	-0.049744	-0.02243	-0.007324	-0.048981	-0.023499	-0.32638	-0.019684	0.26474	0.012512	-0.19424	0.23178	-0.79071	-0.029144	0.064087	0.037231	-0.054626	0.16068	-0.002289	-0.014801
21.507	-0.003052	0.00885	0.05127	0.010071	0.013428	0.032806	-0.21683	0.006714	1.0733	-0.006714	-0.062714	0.000763	-0.040588	-0.064392	0.005646	-0.022888	-0.039063	0.019684	-0.39673	-0.076599	0.10193	-0.040283	-0.54779	0.31845	-0.36865	-0.015564	0.032043	0.020752	-0.28244	0.13565	-0.001984	-0.018463
21.508	0.005188	0.036163	0.09552	0.005341	0.010834	0.023041	-0.15793	0.005035	1.1917	-0.020142	0.002899	-0.011749	0.025787	-0.036469	0.072021	-0.007477	-0.001221	0.021057	0.14908	-0.14999	0.010376	-0.046387	-0.57236	0.29098	-0.042267	-0.026703	0.099792	0.000153	0.28793	0.11948	-0.003204	-0.015106
21.509	0.014038	0.019684	0.031586	0.002136	-0.000916	0.041046	-0.099792	0.004425	1.0452	-0.038757	-0.13001	0.004425	0.097504	-0.006256	0.18814	0.006561	0.058441	-0.054169	0.68344	-0.053558	-0.005798	-0.054474	-0.021515	-0.021667	0.26932	-0.020447	0.103	-0.013123	0.76904	-0.006409	-0.000458	-0.018921
21.51	0.000916	-0.010071	-0.011902	-0.006104	-0.002747	0.022278	-0.047607	0.001678	0.81024	-0.024719	0.023651	-0.002899	-0.010376	-0.001831	0.15854	-0.008545	0.1004	-0.11673	0.46005	0.019836	-0.018768	-0.085449	0.12573	-0.2861	0.53879	-0.011139	0.02121	0.004425	0.092621	0.041351	-0.002747	-0.012207
21.511	0.014954	0.010529	0.027771	-0.003662	-0.005646	-0.003052	-0.010834	0.003662	0.47714	-0.019684	0.06485	-0.000763	-0.064392	-0.021667	0.12177	-0.001831	0.15167	-0.068207	-0.90088	0.1442	0.000153	-0.12207	0.23865	-0.64163	0.52963	0.00351	-0.071106	0.012054	0.28168	0.043488	-0.002899	-0.011902
21.512	0.01236	-0.006561	0.037079	-0.002594	-0.011139	0.000305	0.026245	0.005341	0.13031	-0.021973	-0.002441	-0.006561	-0.006714	-0.034637	-0.0177	0.007477	0.16861	-0.11078	-0.8989	0.045624	0.06546	-0.16113	-0.19577	-0.50003	0.33234	-0.00061	-0.08606	0.012665	0.82199	0.10574	0.002899	-0.013733
21.513	0.007019	0.000305	0.005188	0.010529	-0.000305	-0.009918	0.062561	0.001068	-0.13199	-0.015411	0.019379	-0.006256	-0.013733	-0.034485	0.049591	0.001068	0.097198	-0.052185	-0.80612	0.006409	0.001678	-0.16083	-0.27649	-0.18662	-0.46875	-0.001831	-0.004272	-0.049591	0.66956	0.11444	0.000763	-0.010223
21.514	0.014496	0.015411	-0.032349	-0.002289	0.007782	-0.009918	0.075684	-0.00061	-0.31296	-0.009155	-0.001678	-0.010223	0.002136	-0.010986	0.024261	-0.00824	-0.026093	0.076447	-0.29892	-0.054932	-0.30823	-0.10162	-0.33814	-0.13321	-1.0675	0.013428	-0.027008	-0.095673	-0.20187	0.24994	-0.002136	-0.004883
21.515	0.013123	0.045166	-0.017548	-0.012207	0.010681	0.009308	0.10864	0.000153	-0.55206	-0.011292	0.00473	-0.003967	0.001526	0.034637	0.018768	-0.004425	0.011292	0.064545	0.82153	-0.080719	-0.43655	-0.097809	-0.36667	-0.10223	-0.91965	0.02655	-0.15335	-0.13992	-0.62729	0.10712	-0.003052	-0.000763
21.516	0.01236	0.032806	0.000305	0.016937	-0.005035	0.010529	0.13947	-0.002441	-0.94101	-0.004578	0.014496	-0.005341	0.023956	-0.036163	-0.099487	-0.014648	0.057373	0.099487	1.0835	-0.059357	-0.13916	-0.074615	-0.21347	0.097046	-0.51773	-0.002441	0.037231	-0.25497	-1.3573	-0.1294	-0.002289	-0.005798
21.517	0.011749	0.003052	-0.022278	0.003204	-0.037537	0.017242	0.13458	0.003204	-1.3367	-0.012817	0.049591	-0.007324	0.047302	-0.12405	0.00061	0.00061	0.019379	-0.028839	0.25406	-0.018311	0.09903	0.13977	-0.027466	0.31387	-0.39215	0.014496	0.066833	0.22034	-1.3162	-0.23575	-0.001678	-0.004578
21.518	0.005646	0.017395	-0.027618	0.016479	-0.02533	0.038147	0.18158	0.00351	-1.3452	-0.006714	0.061951	-0.009918	0.054169	-0.074921	0.054016	-0.020294	-0.025024	-0.087128	-0.47958	-0.074463	0.22232	0.071411	0.14755	0.42343	-0.35721	0.027466	0.033569	0.10681	-1.0173	-0.17136	-0.000458	-0.004272
21.519	-0.001831	0.016327	-0.013733	0.024872	-0.014954	0.048676	0.19669	0.00473	-1.0204	-0.004425	0.024872	-0.020905	0.034332	-0.063782	-0.019684	-0.002441	-0.039215	-0.054626	-0.28854	-0.11993	0.11856	0.005493	0.37888	0.36819	-0.26489	0.044556	0.029144	0.034332	-0.63034	-0.10757	-0.001221	-0.001526
21.52	0.015564	0.044098	0.002899	0.019226	0.007629	0.066833	0.2002	0.007782	-0.7254	-0.007629	0.014191	-0.010529	0.038452	-0.049744	-0.024414	-0.011749	-0.052185	-0.033112	0.073242	-0.097961	-0.014496	-0.077515	0.55695	0.38925	-0.1561	0.029602	-0.046692	0.030212	-0.19974	-0.099792	-0.003967	-0.000458
21.521	0.001373	0.021973	-0.005341	0.004578	0.00824	0.078735	0.20432	0.001678	-0.40375	-0.013885	0.040436	-0.008545	0.073547	-0.05188	0.03006	-0.017395	-0.004578	-0.10605	0.46417	-0.001678	0.05722	-0.096588	0.36407	0.04837	-0.032654	0.045319	-0.062103	0.027466	-0.45944	-0.20676	-0.00824	-0.011292
21.522	0.011444	0.032959	-0.024261	-0.013733	-0.005035	0.084076	0.21255	0.045624	-0.36758	-0.023956	-0.02243	-0.011749	0.056915	-0.046387	0.22842	-0.014801	0.030365	-0.11932	-0.095062	0.13336	0.033112	-0.055542	0.20996	-0.10544	0.10223	0.018768	-0.053406	-0.28107	0.48096	-0.34988	-0.001678	-0.020294
21.523	0.007019	0.028992	-0.025024	-0.006256	-0.014801	0.066986	0.20584	0.00946	-0.26428	-0.034332	0.018768	-0.009003	-0.020447	-0.03952	0.036163	-0.014496	0.019073	-0.14862	-1.1	0.18341	0.001068	-0.061493	0.30594	-0.51056	0.093079	-0.003204	-0.018616	-0.54794	0.39764	-0.59235	-0.001678	-0.011292
21.524	0.004425	0.018768	-0.024872	-0.004883	0.007172	0.046539	0.20905	-0.029907	-0.15991	-0.033569	-0.043182	-0.012512	-0.034485	-0.023499	0.028687	0.003662	0.040283	-0.097351	-1.429	-0.006714	-0.038147	-0.065613	0.49408	-0.29724	0.22522	0.009308	-0.03418	0.17258	-0.016327	-0.56412	-0.001678	-0.023804
